HIERARCHY
ROOT hip
{
  OFFSET 0.00112043 5.09927 -9.65472
  CHANNELS 6 Xposition Yposition Zposition Zrotation Xrotation Yrotation
  JOINT abdomen
  {
    OFFSET 0 -1.186 -1.5018
    CHANNELS 3 Zrotation Xrotation Yrotation
    JOINT abdomen2
    {
      OFFSET 0 9.964 0.2134
      CHANNELS 3 Zrotation Xrotation Yrotation
      JOINT chest
      {
        OFFSET 0 13.134 -3.2573
        CHANNELS 3 Zrotation Xrotation Yrotation
        JOINT neck
        {
          OFFSET 0 20.686 -1.6905
          CHANNELS 3 Zrotation Xrotation Yrotation
          JOINT head
          {
            OFFSET 0 7.238 -0.1237
            CHANNELS 3 Zrotation Xrotation Yrotation
            End Site
            {
              OFFSET 0 0 0
            }
          }
        }
        JOINT lCollar
        {
          OFFSET 1.7069 20.075 5.0056
          CHANNELS 3 Zrotation Xrotation Yrotation
          JOINT lShldr
          {
            OFFSET 13.6458 -0.047 -4.849
            CHANNELS 3 Zrotation Xrotation Yrotation
            JOINT lForeArm
            {
              OFFSET 28.3255 -0.9759 2.2888
              CHANNELS 3 Zrotation Xrotation Yrotation
              JOINT lHand
              {
                OFFSET 22.1583 -0.53 10.8316
                CHANNELS 3 Zrotation Xrotation Yrotation
                JOINT lThumb1
                {
                  OFFSET 0.786 0.112 2.5817
                  CHANNELS 3 Zrotation Xrotation Yrotation
                  JOINT lThumb2
                  {
                    OFFSET 0.3601 -0.878 4.2331
                    CHANNELS 3 Zrotation Xrotation Yrotation
                    JOINT lThumb2_End
                    {
                      OFFSET 1.8127 -1.216 2.2227
                      CHANNELS 3 Zrotation Xrotation Yrotation
                      End Site
                      {
                        OFFSET 0.0181 -0.0122 0.0222
                      }
                    }
                  }
                }
                JOINT lCarpal1
                {
                  OFFSET 0.9571 1.114 1.7695
                  CHANNELS 3 Zrotation Xrotation Yrotation
                  JOINT lIndex1
                  {
                    OFFSET 4.1246 0.487 4.1451
                    CHANNELS 3 Zrotation Xrotation Yrotation
                    JOINT lIndex2
                    {
                      OFFSET 3.4052 -1.454 2.7682
                      CHANNELS 3 Zrotation Xrotation Yrotation
                      JOINT lIndex2_End
                      {
                        OFFSET 1.4531 -1.795 1.2713
                        CHANNELS 3 Zrotation Xrotation Yrotation
                        End Site
                        {
                          OFFSET 0.0145 -0.0179 0.0127
                        }
                      }
                    }
                  }
                  JOINT lMid1
                  {
                    OFFSET 5.6954 0.21 2.1184
                    CHANNELS 3 Zrotation Xrotation Yrotation
                    JOINT lMid2
                    {
                      OFFSET 3.9766 -1.54 2.3863
                      CHANNELS 3 Zrotation Xrotation Yrotation
                      JOINT lMid2_End
                      {
                        OFFSET 1.4042 -1.926 1.125
                        CHANNELS 3 Zrotation Xrotation Yrotation
                        End Site
                        {
                          OFFSET 0.014 -0.0193 0.0113
                        }
                      }
                    }
                  }
                }
                JOINT lCarpal2
                {
                  OFFSET 2.0956 0.66 -0.3894
                  CHANNELS 3 Zrotation Xrotation Yrotation
                  JOINT lRing1
                  {
                    OFFSET 5.0395 -0.09 2.4971
                    CHANNELS 3 Zrotation Xrotation Yrotation
                    JOINT lRing2
                    {
                      OFFSET 3.7921 -1.552 1.4806
                      CHANNELS 3 Zrotation Xrotation Yrotation
                      JOINT lRing2_End
                      {
                        OFFSET 1.4655 -1.808 0.9609
                        CHANNELS 3 Zrotation Xrotation Yrotation
                        End Site
                        {
                          OFFSET 0.0147 -0.0181 0.0096
                        }
                      }
                    }
                  }
                  JOINT lPinky1
                  {
                    OFFSET 4.9141 -1.269 0.3591
                    CHANNELS 3 Zrotation Xrotation Yrotation
                    JOINT lPinky2
                    {
                      OFFSET 3.1477 -1.685 0.8462
                      CHANNELS 3 Zrotation Xrotation Yrotation
                      JOINT lPinky2_End
                      {
                        OFFSET 0.8055 -1.585 0.7955
                        CHANNELS 3 Zrotation Xrotation Yrotation
                        End Site
                        {
                          OFFSET 0.0081 -0.0158 0.008
                        }
                      }
                    }
                  }
                }
              }
            }
          }
        }
        JOINT rCollar
        {
          OFFSET -1.7069 20.075 5.0056
          CHANNELS 3 Zrotation Xrotation Yrotation
          JOINT rShldr
          {
            OFFSET -13.6458 -0.047 -4.849
            CHANNELS 3 Zrotation Xrotation Yrotation
            JOINT rForeArm
            {
              OFFSET -28.3255 -0.9759 2.2888
              CHANNELS 3 Zrotation Xrotation Yrotation
              JOINT rHand
              {
                OFFSET -22.1583 -0.53 10.8316
                CHANNELS 3 Zrotation Xrotation Yrotation
                JOINT rThumb1
                {
                  OFFSET -0.786 0.112 2.5817
                  CHANNELS 3 Zrotation Xrotation Yrotation
                  JOINT rThumb2
                  {
                    OFFSET -0.3601 -0.878 4.2331
                    CHANNELS 3 Zrotation Xrotation Yrotation
                    JOINT rThumb2_End
                    {
                      OFFSET -1.8127 -1.216 2.2227
                      CHANNELS 3 Zrotation Xrotation Yrotation
                      End Site
                      {
                        OFFSET -0.0181 -0.0122 0.0222
                      }
                    }
                  }
                }
                JOINT rCarpal1
                {
                  OFFSET -0.9571 1.114 1.7695
                  CHANNELS 3 Zrotation Xrotation Yrotation
                  JOINT rIndex1
                  {
                    OFFSET -4.1246 0.487 4.1451
                    CHANNELS 3 Zrotation Xrotation Yrotation
                    JOINT rIndex2
                    {
                      OFFSET -3.4052 -1.454 2.7682
                      CHANNELS 3 Zrotation Xrotation Yrotation
                      JOINT rIndex2_End
                      {
                        OFFSET -1.4531 -1.795 1.2713
                        CHANNELS 3 Zrotation Xrotation Yrotation
                        End Site
                        {
                          OFFSET -0.0145 -0.018 0.0127
                        }
                      }
                    }
                  }
                  JOINT rMid1
                  {
                    OFFSET -5.6954 0.21 2.1184
                    CHANNELS 3 Zrotation Xrotation Yrotation
                    JOINT rMid2
                    {
                      OFFSET -3.9766 -1.54 2.3863
                      CHANNELS 3 Zrotation Xrotation Yrotation
                      JOINT rMid2_End
                      {
                        OFFSET -1.4042 -1.926 1.125
                        CHANNELS 3 Zrotation Xrotation Yrotation
                        End Site
                        {
                          OFFSET -0.014 -0.0193 0.0113
                        }
                      }
                    }
                  }
                }
                JOINT rCarpal2
                {
                  OFFSET -2.0956 0.66 -0.3894
                  CHANNELS 3 Zrotation Xrotation Yrotation
                  JOINT rRing1
                  {
                    OFFSET -5.0395 -0.09 2.4971
                    CHANNELS 3 Zrotation Xrotation Yrotation
                    JOINT rRing2
                    {
                      OFFSET -3.7921 -1.552 1.4806
                      CHANNELS 3 Zrotation Xrotation Yrotation
                      JOINT rRing2_End
                      {
                        OFFSET -1.4655 -1.808 0.9609
                        CHANNELS 3 Zrotation Xrotation Yrotation
                        End Site
                        {
                          OFFSET -0.0147 -0.0181 0.0096
                        }
                      }
                    }
                  }
                  JOINT rPinky1
                  {
                    OFFSET -4.9141 -1.269 0.3592
                    CHANNELS 3 Zrotation Xrotation Yrotation
                    JOINT rPinky2
                    {
                      OFFSET -3.1477 -1.685 0.8462
                      CHANNELS 3 Zrotation Xrotation Yrotation
                      JOINT rPinky2_End
                      {
                        OFFSET -0.8055 -1.585 0.7955
                        CHANNELS 3 Zrotation Xrotation Yrotation
                        End Site
                        {
                          OFFSET -0.0081 -0.0158 0.008
                        }
                      }
                    }
                  }
                }
              }
            }
          }
        }
      }
    }
  }
  JOINT lThigh
  {
    OFFSET 8.367 -8.2066 0.5982
    CHANNELS 3 Zrotation Xrotation Yrotation
    JOINT lShin
    {
      OFFSET 2.1923 -43.463 -0.4932
      CHANNELS 3 Zrotation Xrotation Yrotation
      JOINT lFoot
      {
        OFFSET 0.7333 -45.8593 -2.6451
        CHANNELS 3 Zrotation Xrotation Yrotation
        End Site
        {
          OFFSET 2.6618 -4.2699 12.3931
        }
      }
    }
  }
  JOINT rThigh
  {
    OFFSET -8.367 -8.2066 0.5982
    CHANNELS 3 Zrotation Xrotation Yrotation
    JOINT rShin
    {
      OFFSET -2.1923 -43.463 -0.4931
      CHANNELS 3 Zrotation Xrotation Yrotation
      JOINT rFoot
      {
        OFFSET -0.7333 -45.8593 -2.6451
        CHANNELS 3 Zrotation Xrotation Yrotation
        End Site
        {
          OFFSET -2.6618 -4.2699 12.3931
        }
      }
    }
  }
}
MOTION
Frames:	4
Frame Time:	0.0333333
-1.16821 1.04165 -9.40472 -180 -89.9981 -180 -0.045922 8.40873 -0.0679568 -0.0829985 16.8175 -0.131171 -0.0829984 16.8175 -0.131171 -4.66881e-008 17.9984 -1.12435e-007 -0.00233103 2.64831 14.9968 0.603948 0.432965 8.60715 -75.7377 1.54103 36.0247 28.01 6.12766 -54.2167 2.81921 24.3792 -2.64242 3.65046e-006 6.96032e-008 -8.97014e-007 1.51586e-006 -2.89252e-006 -8.91442e-007 3.65046e-006 6.96032e-008 -8.97014e-007 2.33572e-015 -1.09332e-015 -0 3.65046e-006 6.96032e-008 -8.97014e-007 1.51586e-006 -2.89252e-006 -8.91442e-007 3.65046e-006 6.96032e-008 -8.97014e-007 3.65046e-006 6.96032e-008 -8.97014e-007 1.51586e-006 -2.89252e-006 -8.91442e-007 3.65046e-006 6.96032e-008 -8.97014e-007 2.33572e-015 -1.09332e-015 -0 3.65046e-006 6.96032e-008 -8.97014e-007 1.51586e-006 -2.89252e-006 -8.91442e-007 3.65046e-006 6.96032e-008 -8.97014e-007 3.65046e-006 6.96032e-008 -8.97014e-007 1.51586e-006 -2.89252e-006 -8.91442e-007 3.65046e-006 6.96032e-008 -8.97014e-007 -0.607421 0.433255 -8.61064 75.8927 1.42 -35.2984 -29.0153 4.8013 53.9147 -3.12827 24.2761 3.39523 -2.98177e-015 3.97569e-016 -6.36111e-015 3.77691e-015 1.39149e-015 -9.54166e-015 2.18663e-015 6.95746e-015 -9.54166e-015 -1.19271e-015 -5.96354e-016 6.36111e-015 -3.18055e-015 2.5842e-015 6.36111e-015 6.16232e-015 1.19271e-015 -3.18055e-015 5.96354e-016 0 -9.54166e-015 -3.18055e-015 2.5842e-015 6.36111e-015 6.16232e-015 1.19271e-015 -3.18055e-015 5.96354e-016 0 -9.54166e-015 -1.19271e-015 -5.96354e-016 6.36111e-015 -3.18055e-015 2.5842e-015 6.36111e-015 6.16232e-015 1.19271e-015 -3.18055e-015 5.96354e-016 0 -9.54166e-015 -3.18055e-015 2.5842e-015 6.36111e-015 6.16232e-015 1.19271e-015 -3.18055e-015 5.96354e-016 0 -9.54166e-015 14.8395 -4.93123 1.26401 -2.0068 16.6247 1.92894 10.7823 11.2201 0.277999 -45.9369 -49.6514 -55.3671 176.943 54.4304 175.299 -10.7015 27.7903 -2.93907 
-1.16821 1.04165 -9.40472 -180 -89.9981 -180 -0.045109 8.36083 -0.0666864 -0.0815842 16.7217 -0.128728 -0.0815842 16.7217 -0.128728 -2.13019e-006 17.9988 5.49427e-007 -0.00233174 2.42302 14.9971 0.603947 0.432999 8.60715 -75.7377 1.54105 36.0247 27.8231 6.19817 -53.9769 2.81921 24.3792 -2.64242 2.98177e-016 -4.72114e-016 1.27222e-014 -1.3769e-006 -4.40533e-006 -4.40426e-007 6.53934e-006 1.58287e-006 -1.36017e-006 -2.83268e-015 -8.44835e-016 6.36111e-015 -4.12478e-015 2.11209e-015 2.22639e-014 -1.3769e-006 -4.40533e-006 -4.40426e-007 6.53934e-006 1.58287e-006 -1.36017e-006 -4.12478e-015 2.11209e-015 2.22639e-014 -1.3769e-006 -4.40533e-006 -4.40426e-007 6.53934e-006 1.58287e-006 -1.36017e-006 -2.83268e-015 -8.44835e-016 6.36111e-015 -4.12478e-015 2.11209e-015 2.22639e-014 -1.3769e-006 -4.40533e-006 -4.40426e-007 6.53934e-006 1.58287e-006 -1.36017e-006 -4.12478e-015 2.11209e-015 2.22639e-014 -1.3769e-006 -4.40533e-006 -4.40426e-007 6.53934e-006 1.58287e-006 -1.36017e-006 -0.607419 0.43328 -8.61063 75.8927 1.42 -35.2984 -28.8357 4.8635 53.698 -3.12827 24.2761 3.39523 2.91056e-006 -1.4856e-006 -5.03399e-007 7.42799e-007 1.45528e-006 -4.2752e-007 2.16776e-006 -2.94088e-006 -7.58793e-008 -1.19271e-015 -2.5842e-015 -0 2.91056e-006 -1.4856e-006 -5.03399e-007 7.42799e-007 1.45528e-006 -4.2752e-007 2.16776e-006 -2.94088e-006 -7.58793e-008 2.91056e-006 -1.4856e-006 -5.03399e-007 7.42799e-007 1.45528e-006 -4.2752e-007 2.16776e-006 -2.94088e-006 -7.58793e-008 -1.19271e-015 -2.5842e-015 -0 2.91056e-006 -1.4856e-006 -5.03399e-007 7.42799e-007 1.45528e-006 -4.2752e-007 2.16776e-006 -2.94088e-006 -7.58793e-008 2.91056e-006 -1.4856e-006 -5.03399e-007 7.42799e-007 1.45528e-006 -4.2752e-007 2.16776e-006 -2.94088e-006 -7.58793e-008 14.8395 -4.93123 1.26401 -2.0068 16.6247 1.92894 10.7823 11.2201 0.277999 -45.9369 -49.6514 -55.3671 176.943 54.4304 175.299 -10.7015 27.7903 -2.93907 
-1.16821 1.04165 -9.40472 -180 -89.9981 -180 -0.0442943 8.31293 -0.0654162 -0.080165 16.6259 -0.126286 -0.080165 16.626 -0.126286 -4.12759e-006 17.9989 1.10827e-006 -0.0023327 2.19764 14.9975 0.603947 0.432978 8.60715 -75.7377 1.54103 36.0247 27.6359 6.26786 -53.7368 2.8192 24.3792 -2.64243 7.00716e-015 -1.51573e-015 -0 -2.13339e-006 -2.95742e-006 9.98022e-009 1.83876e-015 -3.18055e-015 -0 7.00716e-015 -9.19379e-016 -0 1.3418e-015 -1.4561e-014 9.54166e-015 -2.13339e-006 -2.95742e-006 9.98021e-009 1.09332e-015 1.04362e-015 -9.54166e-015 1.3418e-015 -1.4561e-014 9.54166e-015 -2.13339e-006 -2.95742e-006 9.98021e-009 1.09332e-015 1.04362e-015 -9.54166e-015 7.00716e-015 -9.19379e-016 -0 1.3418e-015 -1.4561e-014 9.54166e-015 -2.13339e-006 -2.95742e-006 9.98021e-009 1.09332e-015 1.04362e-015 -9.54166e-015 1.3418e-015 -1.4561e-014 9.54166e-015 -2.13339e-006 -2.95742e-006 9.98021e-009 1.09332e-015 1.04362e-015 -9.54166e-015 -0.607421 0.433242 -8.61064 75.8927 1.42 -35.2984 -28.6559 4.92499 53.4809 -3.12827 24.2761 3.39523 -1.48455e-006 -2.90894e-006 8.59421e-007 7.42275e-007 1.45447e-006 -4.29711e-007 -5.81789e-006 2.9691e-006 1.01671e-006 1.98785e-015 1.35174e-014 -0 -1.48455e-006 -2.90894e-006 8.59421e-007 7.42275e-007 1.45447e-006 -4.29711e-007 -5.81789e-006 2.9691e-006 1.01671e-006 -1.48455e-006 -2.90894e-006 8.59421e-007 7.42275e-007 1.45447e-006 -4.29711e-007 -5.81789e-006 2.9691e-006 1.01671e-006 1.98785e-015 1.35174e-014 -0 -1.48455e-006 -2.90894e-006 8.59421e-007 7.42275e-007 1.45447e-006 -4.29711e-007 -5.81789e-006 2.9691e-006 1.01671e-006 -1.48455e-006 -2.90894e-006 8.59421e-007 7.42275e-007 1.45447e-006 -4.29711e-007 -5.81789e-006 2.9691e-006 1.01671e-006 14.8395 -4.93123 1.26401 -2.0068 16.6247 1.92894 10.7823 11.2201 0.277999 -45.9369 -49.6514 -55.3671 176.943 54.4304 175.299 -10.7015 27.7903 -2.93907 
-1.16821 1.04165 -9.40472 -180 -89.9981 -180 -0.0434781 8.26505 -0.0641463 -0.0787409 16.5301 -0.123843 -0.0787407 16.5302 -0.123843 -3.62075e-006 17.9988 1.26601e-006 -0.00229179 1.97221 14.9968 0.603947 0.43297 8.60715 -75.7377 1.54105 36.0247 27.4483 6.33683 -53.4964 2.8192 24.3792 -2.64242 -4.09993e-015 7.30534e-015 -0 1.63997e-015 6.21202e-015 -6.36111e-015 -1.54058e-015 6.21202e-015 -9.54166e-015 -4.12478e-015 5.56597e-015 3.18055e-015 6.63444e-015 9.21864e-015 3.18055e-015 2.78299e-015 1.43373e-014 -1.27222e-014 2.80783e-015 -8.94531e-016 -0 6.63444e-015 9.21864e-015 3.18055e-015 2.78299e-015 1.43373e-014 -1.27222e-014 2.80783e-015 -8.94531e-016 -0 -4.12478e-015 5.56597e-015 3.18055e-015 6.63444e-015 9.21864e-015 3.18055e-015 2.78299e-015 1.43373e-014 -1.27222e-014 2.80783e-015 -8.94531e-016 -0 6.63444e-015 9.21864e-015 3.18055e-015 2.78299e-015 1.43373e-014 -1.27222e-014 2.80783e-015 -8.94531e-016 -0 -0.60742 0.43325 -8.61063 75.8927 1.42003 -35.2984 -28.4757 4.98582 53.2637 -3.12826 24.2761 3.39524 -7.4176e-007 -1.45365e-006 4.31904e-007 -3.64906e-006 2.98694e-008 9.45208e-007 -1.48352e-006 -2.9073e-006 8.63807e-007 -3.77691e-015 7.95139e-016 -6.36111e-015 -7.4176e-007 -1.45365e-006 4.31904e-007 -3.64906e-006 2.98694e-008 9.45208e-007 -1.48352e-006 -2.9073e-006 8.63807e-007 -7.4176e-007 -1.45365e-006 4.31904e-007 -3.64906e-006 2.98694e-008 9.45208e-007 -1.48352e-006 -2.9073e-006 8.63807e-007 -3.77691e-015 7.95139e-016 -6.36111e-015 -7.4176e-007 -1.45365e-006 4.31904e-007 -3.64906e-006 2.98694e-008 9.45208e-007 -1.48352e-006 -2.9073e-006 8.63807e-007 -7.4176e-007 -1.45365e-006 4.31904e-007 -3.64906e-006 2.98694e-008 9.45208e-007 -1.48352e-006 -2.9073e-006 8.63807e-007 14.8395 -4.93123 1.26401 -2.0068 16.6247 1.92894 10.7823 11.2201 0.277999 -45.9369 -49.6514 -55.3671 176.943 54.4304 175.299 -10.7015 27.7903 -2.93907 
